<svg xmlns="http://www.w3.org/2000/svg" xmlns:svg="http://www.w3.org/2000/svg" xmlns:xlink="http://www.w3.org/1999/xlink" id="svg2" width="256" height="256" version="1.1"><defs id="defs4"><linearGradient id="linearGradient7954"><stop style="stop-color:#8e0d19;stop-opacity:1" id="stop7956" offset="0"/><stop style="stop-color:#ff4343;stop-opacity:1" id="stop7958" offset="1"/></linearGradient><linearGradient id="linearGradient7960" x1="145" x2="145" y1="1052.362" y2="797.362" gradientUnits="userSpaceOnUse" xlink:href="#linearGradient7954"/></defs><metadata id="metadata7"/><g id="layer1" transform="translate(0,-796.36218)"><rect style="fill:url(#linearGradient7960);fill-opacity:1;stroke:none" id="rect3056" width="256" height="256" x="0" y="796.362" rx="5" ry="5"/><g id="g7856" transform="translate(11.037547,12.405215)"><path style="opacity:.06666703;fill:#000;fill-opacity:1;stroke:none" id="path7858" d="m 137.96875,825.34375 c -6.20783,-0.0886 -8.73521,6.0197 -8.875,11.40625 -3.67208,24.99839 -5.20202,50.40449 -9.75,75.21875 -1.62151,4.47734 -8.33225,1.64505 -7.03125,-2.71875 0.54338,-20.60675 5.49346,-41.04177 4.75,-61.65625 -1.13018,-6.7897 -10.95025,-9.71539 -15.1875,-3.71875 -6.527885,7.22312 -4.333629,18.16081 -6.613887,27.01654 -3.102261,22.98269 -6.210657,46.14611 -9.479863,68.98346 -3.456823,4.6523 -8.583135,-1.58933 -11.125,-4.125 -6.891819,-6.04553 -11.608959,-14.99052 -19.75,-19.3125 -10.590361,-2.36119 -19.423451,12.04308 -11.84375,20.28125 13.229815,17.43404 28.281971,33.58768 42.875,50.03125 8.58836,8.99784 20.0583,15.2774 31.78125,18.875 24.57764,5.1008 49.2647,-8.94902 63.90625,-28.09375 7.48267,-10.6718 6.21705,-24.70374 8.65019,-36.9929 2.98032,-27.83224 6.68093,-56.04268 7.63106,-84.10085 -0.96901,-5.90252 -8.97411,-10.02084 -13.1875,-4.4375 -5.06653,5.58321 -2.70115,14.22305 -4.44052,21.02656 -1.62871,14.83293 -2.62626,29.84744 -3.62198,44.66094 -2.81521,3.59032 -10.27631,0.921 -8.5625,-4.21875 1.44505,-26.20757 5.69539,-52.2527 6.5625,-78.46875 -0.94885,-7.35108 -11.71735,-10.39189 -15.59375,-3.78125 -3.80109,14.08183 -3.2617,29.08838 -5.364,43.5535 -1.72611,13.14377 -1.87866,26.67314 -4.72975,39.54025 -2.64067,3.97666 -9.83358,1.2018 -8.1875,-3.78125 2.10118,-25.69739 6.28087,-51.28854 7.03125,-77.0625 -0.38945,-4.73977 -4.97378,-8.77784 -9.84375,-8.125 z"/><path style="opacity:.06666703;fill:#000;fill-opacity:1;stroke:none" id="path7862" d="m 137.75,825 c -6.36322,-0.0552 -8.83949,6.34298 -9,11.71875 -3.67839,24.94661 -5.18242,50.37498 -9.75,75.09375 -1.49964,4.15556 -7.58285,1.4035 -6.34375,-2.5625 0.64906,-20.59456 5.4985,-41.19271 4.78125,-61.71875 -1.23476,-6.89536 -11.02534,-10.12433 -15.53125,-4.21875 -6.930788,7.29887 -4.698732,18.45233 -6.988887,27.54779 -3.083858,22.9503 -6.228943,45.97057 -9.448613,68.85846 C 82.03976,944.00657 77.407069,937.77031 74.90625,935.5 68.103697,929.51057 63.391255,920.82419 55.5,916.25 c -10.445358,-3.04291 -20.342054,11.04999 -13.28125,19.78125 11.128749,15.64966 24.991193,29.64406 37.45972,44.39572 9.580261,12.23978 23.14824,21.13623 37.94653,25.54183 24.6409,5.1382 49.5407,-8.9126 64.28125,-28.2188 7.55156,-10.75835 6.25526,-24.75766 8.71269,-37.1804 3.01603,-28.00973 6.78518,-56.23783 7.63106,-84.28835 -1.14181,-6.2024 -9.46359,-10.2563 -13.78125,-4.53125 -5.12543,5.61588 -2.80184,14.3817 -4.56552,21.24531 -1.6131,14.77835 -2.6525,29.87854 -3.59073,44.53594 -2.63507,3.18671 -9.54257,0.74995 -7.84375,-4.03125 1.46291,-26.15423 5.66572,-52.31794 6.5625,-78.375 -0.78065,-7.68647 -11.94023,-11.03824 -16.1875,-4.25 -3.90463,13.03287 -3.19424,27.3476 -5.21969,40.88109 -1.79258,14.07661 -2.11932,28.49949 -4.93656,42.36891 -2.48746,3.64603 -9.14505,1.05667 -7.53125,-3.5625 2.09699,-25.6935 6.30397,-51.45979 7.03125,-77.125 -0.46662,-5.05428 -5.26992,-9.16116 -10.4375,-8.4375 z"/><path style="opacity:.06666703;fill:#000;fill-opacity:1;stroke:none" id="path7866" d="m 137.875,824.625 c -6.235,-0.0762 -9.44229,6.04681 -9.43837,11.64383 -3.62379,24.99823 -5.22669,50.56026 -9.74913,75.41867 -1.38691,3.7474 -6.8894,1.16302 -5.65625,-2.4375 0.57709,-20.64916 5.50214,-41.1167 4.75,-61.78125 -1.17979,-7.16902 -11.47827,-10.47079 -16.125,-4.40625 -7.160812,7.49726 -4.820086,19.30911 -7.213347,28.72671 -3.08218,22.62743 -6.07218,45.41381 -9.380403,67.92954 -3.51928,3.54259 -7.452879,-2.49519 -9.90625,-4.46875 C 68.358743,929.18677 63.514972,920.45974 55.625,915.90625 44.816137,912.78387 34.667935,927.2336 41.90625,936.1875 c 11.830346,16.54171 26.383234,31.31451 39.679259,46.89501 9.341796,11.40946 22.751541,19.49069 36.851991,23.41749 24.90572,4.6937 49.85846,-9.75605 64.3204,-29.35262 7.07777,-11.02171 5.89834,-25.022 8.32373,-37.50818 2.97841,-27.61036 6.5886,-55.26102 7.54337,-83.0142 -0.59585,-6.59498 -9.81532,-11.23106 -14.40625,-5.125 -5.20158,5.65209 -2.9247,14.46967 -4.65927,21.46406 -1.67976,14.8209 -2.53324,29.89881 -3.68448,44.66094 -2.82099,2.37401 -8.56525,0.22833 -7.0625,-4.125 1.46157,-26.1858 5.67256,-52.21198 6.5625,-78.40625 -0.69276,-7.77345 -12.1217,-11.52631 -16.71875,-4.625 -3.95357,11.71748 -3.06619,24.95349 -4.97519,37.27622 -1.90885,15.34819 -2.39298,31.07118 -5.30606,46.19253 -2.31859,3.31742 -8.39118,0.91848 -6.875,-3.34375 2.10022,-25.72846 6.29629,-51.35111 7.03125,-77.15625 -0.36668,-5.13816 -5.45243,-9.5219 -10.65625,-8.8125 z"/><path style="opacity:.06666703;fill:#000;fill-opacity:1;stroke:none" id="path7870" d="m 137.0625,824.34375 c -7.65065,0.41224 -8.86695,8.77621 -9.40625,14.8125 -3.36223,24.07258 -5.0116,48.50024 -9.3125,72.375 -1.22531,3.41809 -6.13042,0.94399 -4.96875,-2.28125 0.64401,-20.62836 5.51459,-41.14142 4.75,-61.84375 -1.2263,-7.5204 -11.85901,-10.80641 -16.71875,-4.59375 -7.285277,7.56247 -4.925488,19.45562 -7.338347,28.94546 -3.110058,22.58716 -6.032055,45.37469 -9.380403,67.83579 C 81.270898,942.59796 77.798971,936.76051 75.40625,935 68.536192,928.88729 63.737293,920.09759 55.75,915.59375 44.667169,912.25522 34.188099,927.15403 41.59375,936.375 c 11.198,15.76502 25.058641,29.71344 37.532846,44.51113 9.02422,11.6105 21.664264,20.04427 35.435904,24.92637 22.67172,6.6767 46.5136,-4.617 62.11336,-20.76961 7.9216,-7.10506 11.67067,-16.9862 12.39416,-27.4472 4.42038,-33.55037 8.37575,-67.27562 9.92998,-101.00194 -0.76116,-6.99975 -10.24318,-11.60878 -15.03125,-5.375 -5.34899,5.93404 -3.16666,15.32392 -4.88237,22.70923 -1.53296,14.40099 -2.50396,29.06998 -3.49263,43.47827 -2.65522,2.08698 -7.8607,0.16242 -6.4375,-3.875 1.47794,-26.23491 5.674,-52.40145 6.59375,-78.59375 -0.89301,-7.46303 -11.3578,-11.58347 -16.6875,-5.59375 -4.42554,7.92963 -3.0378,18.11084 -4.64175,26.94512 -2.20158,19.11903 -3.14158,38.542 -6.35825,57.46113 -2.14596,2.99641 -7.65048,0.78841 -6.21875,-3.125 2.20724,-25.74327 6.25775,-51.45773 7.0625,-77.21875 -0.47919,-5.71311 -6.1353,-10.1813 -11.84375,-9.0625 z"/><path style="opacity:.06666703;fill:#000;fill-opacity:1;stroke:none" id="path7874" d="m 137.8125,823.90625 c -6.10771,-0.0295 -9.8731,5.7037 -9.90625,11.25 -3.85767,25.39418 -5.27767,51.26968 -9.96875,76.46875 -1.36944,2.76485 -5.2469,0.30043 -4.1875,-2.375 0.57011,-20.68691 5.56821,-41.2105 4.71875,-61.90625 -1.16174,-7.68209 -12.3551,-11.27955 -17.34375,-4.78125 -7.296416,7.69343 -5.020892,19.56614 -7.400847,29.13296 -3.091704,22.57909 -6.034635,45.3569 -9.380403,67.80454 -3.734643,2.30561 -6.772937,-3.72059 -9.383111,-5.46842 -6.787442,-5.92527 -11.331499,-15.04325 -19.616889,-18.93783 -11.27293,-2.79716 -21.454584,12.12893 -14.0625,21.4375 11.141988,15.81989 25.066835,29.73473 37.585819,44.58223 8.888713,11.53834 21.429511,19.88452 35.021041,24.85322 24.61255,7.5888 50.75109,-5.9255 66.54079,-24.57239 10.29634,-11.24556 8.68429,-27.62302 11.37027,-41.66151 2.93144,-27.83691 6.78012,-55.7271 7.48208,-83.70155 -1.14168,-6.66304 -10.07983,-11.19865 -15.03125,-5.5625 -6.09857,5.58542 -3.62132,15.12315 -5.40994,22.43274 -1.56084,14.70955 -2.69495,29.59823 -3.55881,44.28601 -2.45366,1.79049 -7.14409,0.069 -5.75,-3.625 1.45337,-26.26941 5.72538,-52.37569 6.5625,-78.65625 -0.91106,-7.92153 -11.94009,-11.98167 -17.40625,-5.71875 -4.53793,8.64689 -3.06119,19.48309 -4.80333,29.02956 -2.12856,18.40773 -3.04577,37.15198 -6.13417,55.34544 -1.9707,2.67901 -6.94952,0.63611 -5.53125,-2.90625 2.08396,-25.77032 6.33687,-51.43245 7.03125,-77.28125 -0.45074,-5.55887 -5.81372,-10.19205 -11.4375,-9.46875 z"/><path style="opacity:.06666703;fill:#000;fill-opacity:1;stroke:none" id="path7878" d="m 137.78125,823.5625 c -5.50212,0.0255 -9.87119,4.76816 -10,10.25 -3.88742,25.61661 -5.59219,51.63814 -9.96875,77.125 -0.43615,2.59854 -4.44214,1.51788 -3.71875,-1.03125 0.62433,-20.23261 4.92092,-40.24532 4.96875,-60.5 0.44896,-8.07783 -10.46564,-14.05093 -16.65625,-8.46875 -7.972675,6.05283 -6.64423,16.9813 -8.372298,25.7696 -3.164123,24.14202 -6.617481,48.3489 -9.877702,72.4179 -2.541105,2.23293 -5.231507,-2.14632 -7.067576,-3.47383 -7.101751,-6.38686 -12.400135,-14.97656 -20.213674,-20.36992 -10.889156,-4.56206 -22.975431,9.6145 -16.84375,19.75 6.83801,11.55926 17.016951,20.9106 25.493402,31.43469 8.98628,9.67433 16.760412,20.73974 27.225348,28.75281 11.09469,7.38505 23.48718,14.32915 37.37034,13.17085 20.33044,-0.757 38.70074,-12.53789 51.47346,-27.86043 8.60303,-9.92338 7.72814,-23.78571 9.95583,-35.98827 3.34201,-29.09812 6.9031,-58.24318 8.20037,-87.50965 -0.42079,-7.04244 -9.58389,-12.87079 -15.21875,-7.28125 -6.15408,4.67158 -4.31098,13.29669 -5.72267,20.03751 C 177.18202,885.47935 175.77143,901.29715 175,917 c -2.34801,1.42578 -6.38162,-0.0312 -5.125,-3.40625 1.55301,-25.83971 5.37346,-51.52518 6.62712,-77.36994 0.0988,-6.75275 -7.16866,-12.11286 -13.53337,-10.09881 -5.51005,1.40897 -7.0267,7.22914 -7.375,12.15625 -2.82897,24.80111 -4.54207,49.80312 -7.90625,74.5 -0.76987,2.71035 -6.03257,1.92387 -5.15625,-1.28125 2.08712,-25.8196 6.12086,-51.51372 7.125,-77.40625 -0.0678,-6.00045 -5.67074,-11.32174 -11.875,-10.53125 z"/><path style="opacity:.06666703;fill:#000;fill-opacity:1;stroke:none" id="path7882" d="m 137.71875,823.1875 c -4.58518,0.23574 -9.11859,3.39766 -9.7837,8.15732 -2.32908,11.83727 -3.13544,23.92203 -4.75186,35.87162 -1.83474,14.31221 -3.07656,28.71787 -5.52694,42.93981 0.15521,1.72798 -2.26711,2.82983 -3.03125,1.09375 -0.47903,-7.05392 0.87501,-14.13562 1.41983,-21.17357 1.16944,-12.62412 3.06419,-25.20922 3.45517,-37.88893 0.23111,-4.10064 -0.5549,-8.67029 -4.1875,-11.15625 -3.50511,-3.30142 -9.2461,-3.56815 -12.97812,-0.47991 -4.11618,3.12303 -6.452605,7.96842 -6.891423,13.12951 -3.207424,23.47144 -6.311536,46.96136 -9.630234,70.41978 -0.836487,4.90369 -1.060813,9.93999 -1.937723,14.80562 -1.432012,1.55969 -3.508438,-0.73263 -4.59375,-1.6875 -7.350761,-6.59064 -13.262902,-14.83054 -20.598214,-21.27679 -5.555226,-4.03542 -13.494904,-1.13471 -17.322849,3.95462 -3.562191,4.29391 -4.492149,10.71675 -1.494215,15.56902 4.18423,7.70114 10.740669,13.88593 16.277711,20.69301 10.380492,11.83462 20.410804,23.99706 31.344774,35.23765 5.104792,4.92109 11.603194,8.05686 17.642113,11.64114 7.12306,3.7718 15.08897,6.0206 23.19532,5.7438 12.74441,0.3281 25.07132,-4.8771 35.52454,-11.63998 8.7822,-6.1365 17.05827,-13.43175 22.33707,-22.92247 3.46031,-8.07155 3.85431,-17.03144 5.22378,-25.61472 3.62901,-29.41247 6.81064,-58.90022 8.71372,-88.47903 0.92577,-6.21135 -3.79387,-13.01394 -10.35714,-13 -4.3354,0.40032 -7.97779,3.87718 -9.40173,7.77958 -1.87338,10.76466 -2.52774,21.72439 -3.6443,32.5933 -0.87758,9.71674 -1.68485,19.50411 -2.00308,29.22087 -1.21546,0.52927 -3.76246,0.74788 -4.40625,-0.78125 0.0161,-9.3264 1.3426,-18.62265 2.07454,-27.91918 1.47826,-16.62167 3.48013,-33.20757 4.51921,-49.86207 0.4883,-4.45549 -1.76414,-9.13639 -5.625,-11.40625 -3.28649,-1.38546 -7.32466,-2.23008 -10.46875,0 -5.03117,2.34015 -5.05299,8.46463 -5.8125,13.21875 -2.55239,24.06655 -4.54702,48.19775 -7.5,72.21875 -0.0312,2.47586 -4.8933,2.56361 -4.59375,-0.0937 1.14136,-15.18305 3.13819,-30.30026 4.57354,-45.46175 0.95922,-10.84173 2.47387,-21.67641 2.55146,-32.5695 -0.13783,-6.28692 -5.98659,-11.65171 -12.3125,-10.875 z"/><path style="opacity:.06666703;fill:#000;fill-opacity:1;stroke:none" id="path7886" d="m 125.02442,1009.035 c -3.41721,-0.1574 -5.38329,-0.4085 -7.90367,-1.0094 -3.66339,-0.8734 -8.69827,-2.8229 -12.4599,-4.8245 -3.03291,-1.6138 -11.087623,-6.49586 -13.445732,-8.14958 -3.90805,-2.74066 -9.280241,-8.55023 -29.500659,-31.9023 -14.918064,-17.22852 -17.892826,-20.75835 -19.528968,-23.17296 -3.760745,-5.55007 -4.956738,-9.0487 -4.384272,-12.82526 0.723851,-4.77527 3.649586,-9.03498 7.907579,-11.51301 3.330565,-1.93828 7.50348,-2.4887 10.53246,-1.38924 2.704624,0.98172 4.335643,2.45978 11.438748,10.36586 6.74688,7.50959 12.006309,12.83251 13.809174,13.97584 1.019278,0.64641 1.779167,0.69043 2.084036,0.12077 0.120327,-0.22493 0.33512,-1.6685 0.477201,-3.20796 0.370393,-4.0135 1.093389,-9.47448 3.608178,-27.25387 1.983695,-14.02463 4.063092,-29.39839 6.300932,-46.58514 1.009926,-7.75638 1.738003,-12.01439 2.317489,-13.55347 0.980485,-2.60412 3.173228,-5.69141 5.224244,-7.35549 5.03474,-4.08491 10.6801,-3.62394 15.38957,1.25661 2.34241,2.42751 2.97554,4.60301 2.95916,10.16794 -0.0132,4.58895 -0.26254,7.48052 -2.36254,27.43037 -2.28952,21.75038 -2.5043,24.02641 -2.63576,27.93229 -0.0971,2.88414 -0.0723,3.35014 0.20008,3.76586 0.30964,0.47257 1.07162,0.638 1.52973,0.33211 0.98443,-0.65732 1.53686,-4.5363 5.92553,-41.60764 3.43673,-29.0302 3.58944,-30.27824 4.11882,-33.66032 1.22431,-7.82164 2.1668,-9.79301 5.67021,-11.86025 2.02819,-1.19677 3.81754,-1.67678 6.30407,-1.69114 2.44464,-0.0147 3.60426,0.25884 5.64959,1.32982 1.63939,0.8584 3.03916,2.14356 4.14265,3.80345 1.94277,2.92235 2.30553,5.33536 1.8401,12.23976 -0.57413,8.51655 -1.8922,22.06795 -4.74726,48.80748 -2.52171,23.61726 -2.52127,23.61158 -1.86393,24.26892 0.2861,0.28609 0.6199,0.37192 1.44637,0.37192 1.41941,0 1.82207,-0.2983 2.07301,-1.53577 0.44649,-2.20177 2.23155,-18.9767 4.84749,-45.55368 2.57073,-26.11773 2.74798,-27.79131 3.25722,-30.75365 1.02883,-5.98485 2.14194,-7.75261 6.11687,-9.71426 2.0517,-1.0125 2.907,-1.21517 4.48164,-1.06198 1.96531,0.19121 4.32868,0.78383 5.60689,1.40594 1.98774,0.96747 3.95063,3.39568 5.18914,6.41932 0.48397,1.18149 0.53554,1.53209 0.60063,4.08203 0.0785,3.07495 -0.2293,6.86074 -2.19223,26.96544 -3.37649,34.58273 -4.45716,46.82618 -4.46023,50.5327 -0.001,1.55946 0.0184,1.63584 0.50181,1.95267 0.36415,0.23863 0.87351,0.32973 1.8437,0.32973 0.73731,0 1.4062,-0.0654 1.48641,-0.14537 0.0803,-0.08 0.12474,-1.20971 0.0988,-2.51057 -0.13005,-6.54498 3.76786,-49.661 5.26915,-58.28365 0.31945,-1.8347 1.12277,-3.34095 2.67733,-5.01999 2.8728,-3.10291 5.75362,-4.36321 8.85691,-3.87476 3.33869,0.5255 6.21277,2.7788 7.95065,6.23338 1.41574,2.8142 1.46537,3.49388 0.88936,12.18063 -1.70602,25.72922 -7.18986,77.38489 -10.1393,95.50838 -1.18978,7.31093 -1.97533,10.32474 -3.53495,13.56223 -2.77229,5.75472 -9.99797,13.73701 -17.94692,19.82609 -7.30084,5.59262 -13.91318,9.11917 -22.96712,12.24897 -6.40733,2.2149 -12.40762,2.9737 -20.54954,2.5987 l 0,0 z"/><path style="opacity:.06666703;fill:#000;fill-opacity:1;stroke:none" id="path7888" d="m 137.6875,822.5 c -5.00209,0.18385 -9.86907,3.78144 -10.5,8.9375 -2.31835,12.27004 -3.19999,24.76452 -4.86099,37.13495 -1.77053,13.80895 -2.96082,27.7112 -5.35776,41.42755 0.1284,1.05009 -1.27814,2.0974 -1.71875,0.84375 -0.22031,-8.81319 1.34213,-17.60654 2.08481,-26.38725 0.99634,-11.39159 2.89786,-22.75113 2.82144,-34.2065 0.25955,-4.20541 -1.78595,-8.27816 -5.34375,-10.5 -4.43595,-3.5251 -11.15576,-2.29852 -14.71875,1.84375 -3.197275,3.14884 -4.934147,7.47025 -5.338293,11.9621 -3.307678,24.41894 -6.597658,48.84474 -10.014712,73.25093 -0.727967,3.8877 -0.666509,8.11773 -1.584495,11.84947 -2.087732,0.11914 -3.478892,-2.38371 -5.065038,-3.50254 -6.516093,-6.23481 -12.00837,-13.54234 -18.684962,-19.55996 -5.50133,-4.35275 -13.842951,-1.89065 -18.029371,3.16559 -4.1819,4.51413 -5.419919,11.68512 -2.140935,17.05286 4.516088,8.15139 11.417543,14.66916 17.279148,21.86494 10.571908,11.99091 20.615271,24.50389 32.016158,35.69786 5.640915,4.46645 12.01491,8.0388 18.40342,11.3386 7.04941,3.5615 14.95587,5.07 22.82863,4.747 12.70483,-0.029 24.86551,-5.3353 35.24835,-12.2587 8.57939,-6.09815 16.70369,-13.37441 21.80085,-22.67065 3.4287,-7.7788 3.80218,-16.47047 5.14633,-24.77122 3.67277,-29.51106 6.85417,-59.10179 8.80791,-88.78015 0.52868,-3.85674 -0.31435,-7.82122 -2.93942,-10.74866 -3.16376,-4.0702 -9.80606,-5.21665 -13.70477,-1.51427 -3.23688,2.33308 -5.06425,6.09657 -5.13349,10.09582 -2.08429,18.05102 -3.90424,36.15661 -4.80156,54.30777 -0.24218,1.18967 0.78606,3.73842 -1.28125,3.25446 -1.27157,0.21718 -2.43941,-0.51799 -1.96875,-1.9375 1.26362,-21.0915 3.8285,-42.08769 5.65874,-63.1368 0.34115,-6.02441 1.70196,-12.18671 0.56001,-18.1757 -1.46473,-4.05259 -4.70608,-7.7817 -9.29016,-8.15018 -3.88982,-1.16607 -8.04206,0.85247 -10.58484,3.71268 -2.9446,4.66437 -2.6666,10.59161 -3.46551,15.91324 -2.31702,22.47753 -4.22504,45.00562 -7.00324,67.43051 -0.0287,1.89665 -3.87434,1.77424 -3.21875,-0.32589 2.12455,-24.76895 5.52447,-49.43295 7.1355,-74.24985 0.55537,-4.94307 -1.07497,-10.41209 -5.40621,-13.08372 -2.23442,-1.55379 -4.94225,-2.09931 -7.63554,-1.87179 z"/><path style="opacity:.06666703;fill:#000;fill-opacity:1;stroke:none" id="path7892" d="m 137.65625,822.125 c -6.11157,0.14892 -11.04655,5.26696 -11.28125,11.4375 -3.90736,25.50162 -5.63592,51.55801 -9.9375,76.96875 -1.22998,1.86055 -1.04689,-2.36381 -0.875,-3 1.0409,-19.44805 4.87035,-38.72586 4.9375,-58.21875 0.35414,-8.92415 -11.30636,-15.62031 -18.5,-9.84375 -8.343063,5.68677 -7.763198,16.69293 -9.21682,25.63454 -3.168796,24.39388 -6.743797,49.09434 -9.97068,73.27171 -6.512156,-4.12916 -11.032462,-10.87811 -16.513222,-16.33509 -4.091849,-4.92229 -9.607616,-10.95299 -16.768028,-8.66491 -9.696586,1.99658 -16.165557,14.48807 -10.3125,23.125 7.244207,11.68692 17.520635,21.28067 26.179019,31.983 8.770358,9.36189 16.281738,20.25583 26.570981,27.92325 11.31852,7.56525 24.04739,14.59435 38.18285,13.42125 20.67561,-0.7314 39.60775,-12.80033 52.53788,-28.39058 8.78957,-10.09843 8.08824,-24.26357 10.29766,-36.70852 3.33928,-29.18166 6.92698,-58.40862 8.20036,-87.75965 -0.44774,-7.53784 -9.75711,-14.16956 -16.46875,-9.15625 -5.54158,3.24935 -6.40086,9.99312 -6.71875,15.90625 -1.70865,17.37387 -3.77993,34.75673 -4.21875,52.21875 -1.72976,0.44865 -3.3064,-0.20757 -2.46875,-2.3125 1.60181,-25.6213 5.2323,-51.09415 6.65625,-76.71875 0.31355,-6.56713 -5.3081,-12.67363 -12.03125,-12.59375 -5.69323,-0.31244 -10.90296,4.59363 -11.21875,10.28125 -3.42866,25.92597 -4.83946,52.15245 -8.46875,78.03125 -1.26114,0.97874 -3.14406,0.0277 -2.25,-1.84375 2.19143,-25.60271 6.11214,-51.09697 7.09375,-76.78125 -0.164,-6.87864 -6.45719,-12.68336 -13.4375,-11.875 z"/><path style="opacity:.06666703;fill:#000;fill-opacity:1;stroke:none" id="path7896" d="m 137.65625,821.78125 c -7.02725,0.002 -11.77716,6.48538 -11.875,13.03125 -3.76755,25.14842 -5.31224,51.04147 -9.84375,75.84375 0.18747,-21.27609 5.67825,-42.41116 4.65625,-63.71875 -1.43984,-8.83189 -13.77638,-13.52165 -20.1875,-6.625 -8.908932,7.96662 -6.379239,21.51161 -8.941331,32.12391 -2.957829,21.68244 -5.955092,44.38941 -9.058669,65.46984 -9.50536,-6.91918 -15.288287,-18.3682 -25.28125,-24.46875 -12.745149,-4.81844 -26.01451,11.9686 -18.21875,23.25 9.285265,14.37526 22.055706,26.37023 32.868054,39.66226 8.64686,9.93922 17.129473,20.43999 29.319446,26.02524 17.75533,11.7773 41.8129,9.475 59.39576,-1.4714 11.99364,-7.66756 24.67536,-17.38259 28.94799,-31.55985 6.03185,-32.95453 8.48846,-66.51721 11.50442,-99.87276 0.69764,-7.45008 2.41373,-17.10586 -4.97317,-21.87724 -7.67817,-5.64154 -17.9928,2.50996 -17.68937,11.05442 -2.13408,18.92454 -4.18871,37.99111 -4.87313,56.97683 -3.77788,0.81872 -0.82069,-4.82868 -1.45087,-6.71551 1.62566,-24.77062 5.5707,-49.41687 6.26337,-74.22199 -0.94546,-8.76671 -12.42131,-14.14435 -19.46875,-8.34375 -6.78186,5.67948 -4.45679,16.2289 -6.24206,24.02194 -2.30047,20.64152 -3.54397,41.90472 -6.75794,62.16556 -3.42324,0.7726 -0.20667,-5.02585 -0.96594,-6.55783 2.10743,-24.27511 6.05189,-48.47926 6.59094,-72.84842 -0.57038,-6.67107 -6.90798,-12.16953 -13.71875,-11.34375 z"/><path style="opacity:.06666703;fill:#000;fill-opacity:1;stroke:none" id="path7900" d="m 137.625,821.40625 c -7.16666,0.10884 -12.07144,6.52828 -12.1875,13.34375 -3.4076,24.34719 -5.5592,48.86705 -9.15625,73.1875 0.77882,-20.03535 5.39869,-40.1444 4.78125,-60.34375 -0.97239,-9.52914 -14.06624,-14.8335 -20.90625,-7.5625 -8.949513,7.95999 -6.474897,21.60706 -9.031557,32.34313 -2.824982,21.60191 -6.091192,43.70464 -8.843443,65.00062 -9.345607,-6.99907 -15.07167,-18.2707 -25.03125,-24.28125 -13.004959,-4.92679 -26.632106,12.17212 -18.65625,23.75 9.070219,14.17922 21.60487,25.95574 32.270253,38.97376 8.866872,10.19696 17.556526,21.13565 30.042247,26.86999 17.61178,11.6376 41.29997,9.6309 58.90625,-0.9687 12.212,-7.54592 25.00454,-17.3966 29.75,-31.4688 5.80619,-29.65482 7.81745,-59.98793 10.88314,-90.02448 0.005,-8.82415 3.01105,-18.17565 0.58561,-26.75677 -2.4048,-7.41988 -12.91808,-11.16776 -18.46875,-4.8125 -7.01415,6.14824 -4.41041,16.77732 -6.28862,24.99048 -1.48971,13.73479 -2.58027,28.24521 -3.43013,41.63452 -2.04057,-3.15211 0.42045,-9.81872 0.13895,-14.20106 1.54437,-22.1522 5.18765,-44.23594 5.5798,-66.42394 -0.94262,-9.06014 -12.84138,-14.55665 -20.03125,-8.59375 -6.90833,5.7219 -4.55603,16.39505 -6.36706,24.24069 -2.15344,20.62284 -3.75362,41.35749 -6.53919,61.88431 -2.71627,-0.78798 0.59586,-6.99514 -0.1875,-9.40625 2.03878,-23.22037 5.88636,-46.40051 6.28125,-69.6875 -0.55137,-6.84659 -7.12054,-12.51964 -14.09375,-11.6875 z"/><path style="opacity:.06666703;fill:#000;fill-opacity:1;stroke:none" id="path7904" d="m 137.625,821.0625 c -7.30808,0.0666 -12.43559,6.61745 -12.53125,13.625 -2.85738,20.25552 -4.885,40.66099 -7.46875,60.96875 0.99282,-16.48254 5.03417,-33.01229 3.53125,-49.53125 -2.02201,-9.03729 -14.69005,-13.33694 -21.25,-6.34375 -9.046014,8.11597 -6.606472,21.76758 -9.160081,32.56141 -2.710902,21.51191 -6.176461,42.93151 -8.652419,64.46984 C 72.977947,929.74827 67.243891,918.69525 57.375,912.75 c -12.903661,-4.88475 -26.715232,11.54003 -19.5625,23.4375 8.553798,14.11736 21.147221,25.47789 31.449652,38.378 9.425856,10.64269 18.255124,22.31361 31.456598,28.4345 17.23468,11.3674 40.41718,9.8212 57.875,-0.1875 12.54841,-7.37563 25.3041,-17.17197 30.84375,-31.03125 5.51861,-23.38889 6.64438,-47.69716 9.51241,-71.55248 1.10347,-14.89909 3.50511,-29.85189 3.11259,-44.79127 -1.42531,-8.32386 -12.47065,-14.12782 -19.15625,-7.59375 -6.22846,4.48844 -5.36344,12.81986 -6.375,19.5625 0.37652,-11.57857 3.69427,-23.40865 1.90625,-34.90625 -2.42167,-8.79961 -14.78818,-12.51854 -21.3125,-5.75 -5.80465,7.15967 -3.80337,17.64925 -5.60006,26.20934 -2.14605,19.54822 -3.43174,39.80211 -6.36869,58.91566 1.71147,-25.75561 6.18561,-51.92374 7,-77.96875 -0.17149,-7.40881 -7.0804,-13.74612 -14.53125,-12.84375 z m 36.71875,69.1875 c -0.93788,8.00012 -1.04063,17.39148 -1.96875,24.625 0.33322,-9.19986 1.42518,-18.3612 2.21875,-27.53125 -0.0833,0.96875 -0.16667,1.9375 -0.25,2.90625 z"/><path style="opacity:.06666703;fill:#000;fill-opacity:1;stroke:none" id="path7908" d="m 137.625,820.6875 c -7.32321,0.10496 -12.63966,6.54138 -12.8558,13.61074 -1.24805,8.02377 -2.02827,16.11471 -3.05045,24.17051 0.93475,-7.50905 0.89357,-17.09317 -7.03125,-20.9375 -9.28753,-5.5695 -20.117672,3.7765 -21.21875,13.125 C 89.209084,878.69367 85.806674,908.95778 81.5,935.875 72.830684,928.8368 67.174117,918.16836 57.59375,912.46875 44.42698,907.29111 30.129273,924.17155 37.5,936.34375 c 8.130843,13.6217 20.251713,24.56792 30.191551,36.9385 9.853035,11.02584 19.024457,23.6403 32.870949,30.03025 17.32823,11.4328 40.58307,9.8755 58.21875,-0.1875 12.57361,-7.39106 25.40693,-17.26778 31,-31.21875 5.36087,-22.40572 6.4266,-45.79343 9.2167,-68.6895 1.21451,-15.91601 3.78402,-31.95926 3.4083,-47.873 -1.47331,-8.56579 -12.84727,-14.45348 -19.6875,-7.8125 -1.88095,1.66755 -3.66771,3.56052 -4.53125,5.96875 0.30308,-9.18453 4.43177,-20.92156 -3.96875,-27.8125 -6.75225,-5.60434 -18.85064,-2.42383 -20.46875,6.65625 -0.8939,3.72862 -1.25675,7.594 -1.65625,11.4375 1.16579,-7.67132 1.14356,-17.5607 -6.84375,-21.53125 -2.31086,-1.34418 -4.95835,-1.7332 -7.625,-1.5625 z"/><path style="opacity:.06666703;fill:#000;fill-opacity:1;stroke:none" id="path7912" d="m 137.59375,820.34375 c -7.66721,0.0817 -13.03802,6.92936 -13.21875,14.25 -0.83921,4.98073 -1.47575,11.73867 -2.0625,15.5625 0.98102,-10.64403 -12.65174,-19.00767 -21.34375,-12.15625 -10.340476,7.24572 -8.409948,21.33291 -10.648021,32.26616 -2.748012,21.74399 -6.179556,43.42861 -8.789479,65.17134 -8.598549,-7.06688 -14.241978,-17.75817 -23.90625,-23.34375 -13.49738,-5.16365 -27.933714,12.02253 -20.4375,24.4375 8.758021,14.44441 21.620284,26.08565 32.203703,39.25401 9.183667,10.48889 18.063698,21.84954 30.983797,27.83974 17.41186,11.4462 40.85585,9.9812 58.53125,-0.1875 12.7043,-7.39059 25.6154,-17.37014 31.21875,-31.4375 5.22297,-21.89637 6.32066,-44.48286 9.05071,-66.76175 1.2798,-16.61032 3.98405,-33.38454 3.57429,-49.98825 -1.53331,-8.78531 -13.11077,-14.76362 -20.1875,-8.0625 -1.66278,0.66428 -4.55462,6.58564 -3.62138,2.32165 0.78632,-8.22716 2.91342,-18.69834 -4.87862,-24.38415 -6.99753,-5.39216 -19.03285,-1.9961 -20.65625,7.125 -0.7125,4.64233 -0.43152,-0.60793 -1.28125,-2.46875 -2.08672,-5.92031 -8.13265,-10.15086 -14.53125,-9.4375 z"/></g><path style="fill:#fff;fill-opacity:1;stroke:none" id="path3054" d="m 133.93809,1017.4236 c -3.41721,-0.1574 -5.38329,-0.4085 -7.90367,-1.0094 -3.66339,-0.8734 -8.69827,-2.8229 -12.4599,-4.8245 -3.03291,-1.6138 -11.08762,-6.4959 -13.44573,-8.1496 -3.908053,-2.7406 -9.280244,-8.55021 -29.500662,-31.90228 C 55.710064,954.3093 52.735302,950.77947 51.09916,948.36486 c -3.760745,-5.55007 -4.956738,-9.0487 -4.384272,-12.82526 0.723851,-4.77527 3.649586,-9.03498 7.907579,-11.51301 3.330565,-1.93828 7.50348,-2.4887 10.53246,-1.38924 2.704624,0.98172 4.335643,2.45978 11.438748,10.36586 6.74688,7.50959 12.006309,12.83251 13.809174,13.97584 1.019278,0.64641 1.779167,0.69043 2.084036,0.12077 0.120327,-0.22493 0.33512,-1.6685 0.477201,-3.20796 0.370393,-4.0135 1.093389,-9.47448 3.608178,-27.25387 1.983695,-14.02463 4.063096,-29.39839 6.300936,-46.58514 1.00992,-7.75638 1.738,-12.01439 2.31749,-13.55347 0.98048,-2.60412 3.17322,-5.69141 5.22424,-7.35549 5.03474,-4.08491 10.6801,-3.62394 15.38957,1.25661 2.34241,2.42751 2.97554,4.60301 2.95916,10.16794 -0.0132,4.58895 -0.26254,7.48052 -2.36254,27.43037 -2.28952,21.75038 -2.5043,24.02641 -2.63576,27.93229 -0.0971,2.88414 -0.0723,3.35014 0.20008,3.76586 0.30964,0.47257 1.07162,0.638 1.52973,0.33211 0.98443,-0.65732 1.53686,-4.5363 5.92553,-41.60764 3.43673,-29.0302 3.58944,-30.27824 4.11882,-33.66032 1.22431,-7.82164 2.1668,-9.79301 5.67021,-11.86025 2.02819,-1.19677 3.81754,-1.67678 6.30407,-1.69114 2.44464,-0.0147 3.60426,0.25884 5.64959,1.32982 1.63939,0.8584 3.03916,2.14356 4.14265,3.80345 1.94277,2.92235 2.30553,5.33536 1.8401,12.23976 -0.57413,8.51655 -1.8922,22.06795 -4.74726,48.80748 -2.52171,23.61726 -2.52127,23.61158 -1.86393,24.26892 0.2861,0.28609 0.6199,0.37192 1.44637,0.37192 1.41941,0 1.82207,-0.2983 2.07301,-1.53577 0.44649,-2.20177 2.23155,-18.9767 4.84749,-45.55368 2.57073,-26.11773 2.74798,-27.79131 3.25722,-30.75365 1.02883,-5.98485 2.14194,-7.75261 6.11687,-9.71426 2.0517,-1.0125 2.907,-1.21517 4.48164,-1.06198 1.96531,0.19121 4.32868,0.78383 5.60689,1.40594 1.98774,0.96747 3.95063,3.39568 5.18914,6.41932 0.48397,1.18149 0.53554,1.53209 0.60063,4.08203 0.0785,3.07495 -0.2293,6.86074 -2.19223,26.96544 -3.37649,34.58273 -4.45716,46.82618 -4.46023,50.5327 -10e-4,1.55946 0.0184,1.63584 0.50181,1.95267 0.36415,0.23863 0.87351,0.32973 1.8437,0.32973 0.73731,0 1.4062,-0.0654 1.48641,-0.14537 0.0803,-0.08 0.12474,-1.20971 0.0988,-2.51057 -0.13005,-6.54498 3.76786,-49.661 5.26915,-58.28365 0.31945,-1.8347 1.12277,-3.34095 2.67733,-5.01999 2.8728,-3.10291 5.75362,-4.36321 8.85691,-3.87476 3.33869,0.5255 6.21277,2.7788 7.95065,6.23338 1.41574,2.8142 1.46537,3.49388 0.88936,12.18063 -1.70602,25.72922 -7.18986,77.38489 -10.1393,95.50838 -1.18978,7.31093 -1.97533,10.32474 -3.53495,13.56223 -2.77229,5.75472 -9.99797,13.73701 -17.94692,19.82606 -7.30084,5.5927 -13.91318,9.1192 -22.96712,12.249 -6.40733,2.2149 -12.40762,2.9737 -20.54954,2.5987 l 0,0 z"/></g></svg>